# xmcd
#
# Track frame offsets:
#	150
#	24234
#	42547
#	63979
#	93443
#	126997
#	153434
#	175885
#	192725
#	209207
#	235560
#	267132
#	287921
#	311818
#	331641
#
# Disc length: 4746 seconds
#
# Revision: 0
# Processed by: cddbd v1.4PL0 Copyright (c) Steve Scherf et al.
# Submitted via: audiograbber 1.80
#
DISCID=dd12880f
DTITLE=Various Artist - Greatest Hits Of Soul And R&B Disk 8
DYEAR=1900
DGENRE=
TTITLE0=Minneapolis Genius 94 East and Prince - Just Another Sucker
TTITLE1=Donna Allen - Serious
TTITLE2=Sun - Slamm Dunk The Funk
TTITLE3=George Clinton - Do Fries Go With That Shake
TTITLE4=Funkadelic - One Nation Under A Groove
TTITLE5=Xavier and George Clinton and Bootsy - Work That Sucker To Death
TTITLE6=James Brown and The JB's - Rapp Payback
TTITLE7=Rene and Angela - Bangin' The Boogie
TTITLE8=Dayton - The Sound Of Music
TTITLE9=Kool and The Gang - Brown
TTITLE10=BB and Q Band - On The Beat
TTITLE11=Charles and Eddie - Would I Lie To You?
TTITLE12=Portrait - Here We Go Again! (Extended)
TTITLE13=Charles Jackson - Passionate Breezes
TTITLE14=David Grant and Jaki Graham - Could It Be I'm Falling In Love
EXTD=
EXTT0=
EXTT1=
EXTT2=
EXTT3=
EXTT4=
EXTT5=
EXTT6=
EXTT7=
EXTT8=
EXTT9=
EXTT10=
EXTT11=
EXTT12=
EXTT13=
EXTT14=
PLAYORDER=
